<svg width="41" height="26" viewBox="0 0 41 26" fill="none" xmlns="http://www.w3.org/2000/svg">
<path d="M0 16.8619L0.00622157 16.8918H0.0357793L0.388913 16.494L0.279239 16.7514L0.283906 16.7651L0.294794 16.7611L0.427804 16.4496L0.537478 16.3262L0.332131 16.8684L0.344576 16.8926L0.371022 16.8797L0.622261 16.2342L0.668153 16.1826V16.1898L0.630816 16.3181V16.331L0.635483 16.3391L0.392023 17.2799L0.398247 17.2904L0.408359 17.2847L0.627704 16.4416V16.4464L0.509475 17.2185V17.2339L0.519587 17.2427L0.505587 17.3363L0.512587 17.3476L0.522699 17.3412L0.538254 17.2419L0.542145 17.2371V17.2298L0.59037 16.9071L0.581813 17.1492L0.487696 17.8317L0.505587 17.8624L0.535921 17.8454L0.570146 17.7583L0.522699 19.1388L0.532033 19.1485L0.541366 19.1388L0.59037 17.7091L0.681374 17.4775V17.4985L0.616037 17.9624L0.608258 18.4417L0.660374 18.9177L0.623037 19.4825L0.632371 19.4922L0.643261 19.4825L0.675931 18.9984L0.723378 19.2106L0.748269 19.2267L0.769269 19.2033L0.776269 19.1388L0.785603 19.1331L0.791827 19.1226L0.822161 19.0226L0.792605 19.4841L0.80116 19.4922L0.809717 19.4841L0.84394 18.9532L1.0594 18.2472L1.02751 18.428L1.04695 18.4602L1.07651 18.4425L1.09673 18.3618L1.01895 19.0734L1.02673 19.0823L1.03684 19.0734L1.1294 18.2359L1.42964 17.0774L1.27408 17.9431L1.28419 17.9721L1.31064 17.9786L1.24608 18.432L1.25308 18.4417L1.26163 18.436L1.3293 17.9584L1.56265 17.1467H1.57665L1.59143 17.1282L1.81856 16.2197V16.2149V16.21L1.73455 17.3872L1.74155 17.3952L1.75011 17.3872L1.84034 16.1237L1.87456 16.0027V16.0785L1.9189 16.1253L1.9679 16.0785L1.98501 15.8365V15.8316V15.826L2.0099 16.0309L1.99046 16.394L1.99824 16.402L2.00679 16.394L2.02468 16.0624L2.07369 16.0753L2.10324 16.0309V14.8473L2.17558 15.5234L2.18491 15.5323L2.19347 15.5234L2.12113 14.6956V14.6069L2.13669 14.4358L2.14291 14.4826H2.13824V14.4899L2.19891 14.9594L2.21058 14.9675L2.21991 14.957L2.1538 14.4326L2.14602 14.4237L2.13591 14.4294L2.20203 13.7355L2.16002 13.6879L2.10791 13.7355V13.7468L2.09702 13.7403H2.08457L2.08924 13.6911L2.09546 13.683L2.09935 13.6718L2.20436 13.0513L2.24792 14.3737L2.25881 14.3842L2.26892 14.3737L2.2487 13.2143L2.24092 13.2078L2.23392 13.2143V13.3095L2.22225 12.9448L2.23781 12.8528L2.29148 13.4531L2.30236 13.4628L2.31248 13.4531L2.22691 11.2077L2.25492 10.8592L2.28214 10.8463L2.25492 11.3497L2.26192 11.3578L2.2697 11.3497L2.40504 9.52226L2.43537 9.51742L2.44937 9.48515L2.42526 9.28829L2.54971 7.85295L2.52716 7.82633L2.4976 7.84569L2.49293 7.87151C2.53416 7.38741 2.58316 6.89928 2.6555 6.41923L2.86629 5.7068L2.85384 5.68098L2.82506 5.6947L2.74339 5.92303C2.74728 5.90205 2.75117 5.88027 2.75584 5.85849L3.09497 4.85157L3.12531 4.86448L3.15331 4.84512L3.51966 4.11898L3.50799 4.2053L3.515 4.21983H3.53055L3.40143 4.75556C2.82351 6.46521 2.51704 8.22489 2.85695 10.0225L3.18364 11.7507C3.25405 12.0818 3.30059 12.4178 3.32287 12.756C3.32778 13.1549 3.29836 13.5534 3.23498 13.9469C3.19998 14.218 3.18131 14.4657 3.16498 14.7101L2.92462 15.7372L2.91762 15.7445L2.92462 15.7517L2.81729 16.2092C2.69418 16.3508 2.57987 16.5004 2.47504 16.657L2.38093 16.7377L2.34981 16.7127L2.31248 16.7304L2.21291 16.8861L2.14524 16.9991L2.15613 17.0467L2.20436 17.0354L2.27592 16.9289L2.34903 16.8619C2.28472 16.9716 2.22655 17.085 2.1748 17.2016L2.16158 17.2161L2.03868 17.4501L2.03168 17.4574V17.4695V17.4767L1.96634 17.8866V17.893C1.94916 17.9979 1.93902 18.1038 1.93601 18.2101C1.93381 18.3915 1.94761 18.5727 1.97723 18.7515L1.97257 18.783L1.98501 18.7967C2.01846 19.0016 2.06279 19.2049 2.10635 19.4091L2.12658 19.5309L2.15847 19.9706L2.1048 21.3237L2.12191 21.3414L2.14058 21.3237L2.18102 20.2328L2.20747 20.5394L2.21447 20.5588L2.22769 20.5717L2.21058 22.3015C2.15691 23.0954 2.03324 23.8926 1.5152 24.4574L1.68555 24.4678L1.76333 24.5356L1.90878 24.5856L1.94534 24.5897H1.95468L1.9609 24.5848L2.00212 24.5913L2.04568 24.5864L2.12346 24.5518L2.16158 24.5033L2.20591 24.5082L2.36148 24.6026L2.46337 24.7059C2.48378 24.7604 2.49991 24.8165 2.5116 24.8737C2.55594 25.0738 2.59949 25.2771 2.64383 25.4748L2.63605 25.5127V25.5288L2.64616 25.545L2.63216 25.6313L2.60338 25.712V25.7547L2.6415 25.7709L2.65472 25.8015L2.68972 25.8088L2.93552 25.7458L2.9713 25.7717L3.00941 25.7918L2.72006 25.8031L2.70839 25.816L2.72006 25.8281L4.29049 25.8378L3.52122 25.8515L3.51344 25.8596L3.52122 25.8685H3.81679L3.66123 25.879L3.65345 25.8878L3.66123 25.8959L4.96486 25.8766L5.10643 25.9952L5.15388 26L5.17021 25.9572L5.14065 25.8766H5.18655L5.1951 25.8677L5.18655 25.8588H5.13287L5.11187 25.8007L5.5319 25.7951L5.57624 25.7483L5.5319 25.6999H5.51401L5.47434 25.6506L5.05354 24.8164L5.01153 24.8019L4.99053 24.8438H4.98664H4.98276L4.97576 24.8124L4.95086 24.7882L4.92131 24.8027H4.89875L4.89331 24.8107C4.88397 24.797 4.87775 24.7825 4.86841 24.7696V24.7163L4.84352 24.6873L4.81863 24.7034C4.79219 24.6663 4.75874 24.6349 4.73152 24.5985V24.5929V24.5784L4.76263 24.609H4.79997V24.5711L4.40561 24.1774H4.40016L4.26949 24.0523C4.25238 24.0338 4.2376 24.012 4.22048 23.9934L4.21193 23.9813L4.20104 23.9733C4.15515 23.924 4.11781 23.8651 4.07036 23.8167C4.04392 23.7901 4.01903 23.7611 3.99258 23.7361L3.89069 23.4722L3.88135 23.4682L3.87669 23.4763L3.96458 23.7046C3.93979 23.6719 3.91865 23.6365 3.90158 23.5989L3.86657 23.494C3.86657 23.4835 3.86191 23.473 3.86035 23.4617L3.85491 23.3859C3.85491 23.3601 3.85491 23.3335 3.85491 23.3052C3.86459 22.6506 3.92363 21.9978 4.03147 21.3527L4.07425 21.3035V21.2736L4.04081 21.3164L4.07581 21.2591L4.08436 21.1744L4.04236 21.2744C4.0517 21.2228 4.05714 21.1704 4.06725 21.1187L4.54173 19.6963C4.57362 19.6342 4.61406 19.5777 4.64907 19.5172L4.36749 20.3377L4.56973 19.8835L4.71207 19.4107C4.75096 19.3469 4.78519 19.28 4.82719 19.2187L4.80852 19.3308L4.83964 19.2582L4.85286 19.1775C5.1013 18.828 5.39407 18.5148 5.72325 18.2464L5.71469 18.2723L5.71936 18.2819L5.73025 18.2763L5.74502 18.2343L5.96204 18.6676L5.97371 18.7136L6.27239 19.3163L6.68075 20.8388L6.69708 20.8476L6.70642 20.8315L6.32528 19.3978L6.33617 19.4131C6.36962 19.4785 6.40229 19.5438 6.43496 19.6092L6.43962 19.6761L6.45673 19.6915L6.46763 19.6794C6.57134 19.9149 6.67505 20.1503 6.77876 20.3853L6.76242 20.6935L6.57885 20.0424L6.5703 20.0376L6.56485 20.0465L6.83943 21.0146L6.84954 21.0203L6.85576 21.0098L6.77798 20.7258H6.79198L6.79976 20.7113L6.81376 20.4474C6.83865 20.5055 6.86432 20.5636 6.89154 20.6225V20.654L6.90943 20.6717C6.9561 20.7799 7.00121 20.888 7.0471 20.9945L7.03233 21.2365L7.04866 21.2535L7.06733 21.2365L7.07744 21.0695C7.1 21.1236 7.12333 21.1768 7.14589 21.2309L7.52625 22.6243C7.5768 22.9776 7.62659 23.331 7.70437 23.6683L7.74248 24.843L7.76193 24.8616L7.77982 24.843L7.73704 23.8103C7.75571 23.8813 7.78059 23.9491 7.80315 24.0176L7.78215 24.5469L7.78993 24.563H7.80704L7.81715 24.6437L7.84671 24.7196L7.8646 24.7922L7.8996 24.8567V24.8882L7.91827 24.9156L7.94861 24.9084L8.15473 24.96L8.29163 24.8793L8.2963 24.8842C8.33918 24.9262 8.38464 24.9653 8.43242 25.0012L8.3733 25.0245L8.36863 25.035L8.37719 25.0399L8.44642 25.0133C8.48596 25.0468 8.52724 25.078 8.57009 25.1068C8.58564 25.127 8.59653 25.1496 8.61054 25.1706V25.2271L8.6222 25.2497L8.64476 25.2376V25.2254C8.66032 25.2521 8.68132 25.2755 8.69454 25.3061L8.75054 25.6289L8.83377 25.7854L9.00101 25.8749L9.17524 25.8289L9.20713 25.8338V25.8394H9.21257L9.5237 25.8685L9.54937 25.883L9.57737 25.8741L9.67849 25.8854L9.68938 25.8741L9.67849 25.8604L9.60537 25.8524L10.2276 25.8685L10.2626 25.8927L10.3023 25.8717L11.2707 25.887L11.2793 25.8774L11.2707 25.8677L10.3202 25.8419L10.3451 25.7999L10.9992 25.858C10.9937 25.8036 10.9844 25.7496 10.9712 25.6966H11.0296L11.0716 25.666L11.0622 25.6135L11.0039 25.5506H11.042L11.0716 25.5401L11.0856 25.5159V25.8193L11.1066 25.8402L11.1284 25.8193V25.4401L11.168 25.5207H11.1813L11.1859 25.5054L11.1284 25.3787V25.3674L11.1532 25.3408L11.147 25.3013L11.1284 25.2755V24.9527L11.1105 24.935L11.0934 24.9527V25.223L11.0272 25.1504L10.9549 25.0867L10.664 24.772L10.8888 25.0383L10.7721 24.9705L10.6484 24.9197L10.6251 24.7293L10.6033 24.7059H10.5956V24.7171L10.6096 24.8713H10.601H10.5924L10.5613 24.839L10.5178 24.8567L10.5038 24.8777H10.4968C10.461 24.8398 10.4252 24.797 10.3886 24.7639L10.4159 24.7502L10.4283 24.7091L10.3918 24.6905L10.3358 24.7123C10.258 24.6397 10.188 24.5687 10.1141 24.4977V24.4848L10.0977 24.4695L10.0915 24.4751C10.0433 24.4291 9.99662 24.3815 9.94995 24.3347C9.91962 24.2903 9.89551 24.2419 9.86595 24.1967L10.0767 24.3057L9.85584 24.1806C8.87578 22.6783 8.29007 20.8783 8.44331 19.1194L8.52109 18.8225L8.84233 17.9737L8.93722 17.9826L9.03834 17.9665L9.28102 17.747L9.28725 17.4291L9.2258 17.2056L9.46537 16.8022V16.7982L9.66371 16.7264L9.68549 16.7006V16.6812C9.84961 16.757 9.91028 16.987 9.95151 17.1814C9.99662 17.3952 10.1452 17.6534 10.3498 17.5969C10.3912 17.5833 10.429 17.5598 10.4602 17.5284L10.538 17.534L10.5956 17.5042L10.6461 17.4638L10.6757 17.4348L10.7013 17.4017L10.7682 17.2694L10.7947 17.125V17.1209L10.8079 17.1145H10.8157H10.8375L10.8888 17.1379L10.9347 17.1088L11.0319 17.0636L11.1027 16.983L11.1268 16.9208L11.1486 16.8224L11.1182 16.661C11.1955 16.5441 11.2844 16.4359 11.3835 16.3383L11.4815 16.3439L11.8766 16.3262H11.8813H11.886L11.9739 16.3165V16.331L11.9894 16.3375L12.0314 16.327L12.0361 16.3351H12.0462L12.0742 16.3157L12.901 16.089L12.9111 16.0696L12.8932 16.0591L12.7128 16.1059L12.8178 16.0035H12.8217V16.0115H12.8302H12.8388L13.0963 16.0793L13.0263 16.0987L13.0193 16.1124L13.0325 16.1197L13.1398 16.0906L13.892 16.285H13.8998L14.1634 16.373L14.214 16.3431L14.186 16.2875L13.6773 16.1132C13.8438 16.164 14.0118 16.2108 14.1798 16.2568C14.3971 16.3528 14.6191 16.4371 14.8448 16.5093L15.0245 16.5997L15.7113 16.7264L15.8062 16.7191C15.9524 16.7363 16.0993 16.7457 16.2465 16.7474C16.544 16.742 16.8407 16.7107 17.1332 16.6538C17.4542 16.6427 17.7738 16.6055 18.0891 16.5424L18.149 16.5279L19.6222 16.4117L20.3915 16.4989C20.967 16.6291 21.5541 16.6962 22.1432 16.6989L23.3231 16.8329C23.3231 16.8482 23.3231 16.8635 23.3231 16.8781L23.313 16.8958L23.3208 16.983C23.3006 17.7898 23.4911 18.5885 23.6055 19.3937V19.5341L23.5821 19.5583V19.5769H23.6L23.6078 19.5696L23.6436 19.8552C23.6934 20.7516 23.4592 21.6214 23.2547 22.4895L23.1683 22.592V22.6113H23.1862L23.2415 22.5468C23.0727 23.2802 22.9498 24.0152 23.0657 24.7656L23.0447 24.8462V25.052L23.0493 25.073L22.9715 25.2569L22.9754 25.2843H23.0011L23.1427 25.1916L23.1668 25.2029L23.1924 25.2101L23.2912 25.2279L23.3892 25.1899L23.4499 25.123L23.488 25.0383L23.5362 25.0713L23.5782 25.1117L23.5572 25.198V25.2198L23.5666 25.2392L23.5339 25.2763V25.294H23.5502L23.5852 25.2545L23.6055 25.2601L23.6249 25.2529L23.5782 25.4038L23.5829 25.4425L23.6125 25.461L23.5845 25.578L23.4079 25.6587L23.4025 25.67L23.4126 25.6757L23.5751 25.616L23.5471 25.7289L23.565 25.7789L23.614 25.7854V25.791V25.7983V25.8411L23.6249 25.8524L23.6374 25.8411V25.8007H23.6763L23.7081 25.8257H23.6654L23.6576 25.8346L23.6654 25.8427H23.7361L23.8622 25.8677L23.9913 25.8346L24.2557 25.8225L24.2122 25.8338L24.1958 25.8636L24.2246 25.8822L24.5194 25.8104L24.745 25.7991H24.7497L25.8682 25.7555L25.8759 25.7467L25.8682 25.7386L24.6423 25.7854L24.7201 25.766L25.067 25.7596L25.4061 25.6934L26.0198 25.6644H26.0315L26.0393 25.6571L26.093 25.7128H26.1093V25.6958L26.0393 25.6232L26.2166 25.6119L25.9055 25.382L25.2568 24.8414V24.8325L25.2506 24.8245L25.2171 24.8107L25.1891 24.7882H25.179L25.1736 24.7954L25.0413 24.743L24.7551 24.53L24.7442 24.5195L24.7489 24.5146V24.4985H24.7325L24.7279 24.5033L24.661 24.3993L24.7154 24.3428V24.3275H24.7006L24.6454 24.3839L24.6182 24.3557V24.3258L24.6415 24.0669L24.6711 24.0338V24.0152H24.654L24.6462 24.0241L24.7605 22.7719L24.8593 22.6573V22.6372H24.8414L24.7637 22.7243L24.787 22.4693L24.8072 22.4468V22.429L24.7924 22.4225L24.8702 21.9643L24.948 21.8658V21.8465H24.9309L24.8827 21.907L24.9301 21.7012L24.9604 21.6657V21.6472H24.9433L25.1712 20.9114L25.4621 20.1998L25.4551 20.178L25.4349 20.1836L25.186 20.7702C25.2444 20.5999 25.3042 20.4289 25.3657 20.2586C25.4435 20.0723 25.5135 19.8827 25.6029 19.7011C25.6084 19.6906 25.6123 19.6794 25.6177 19.6689L25.4334 20.4458L25.4388 20.4555L25.4481 20.4499L25.6815 19.543C25.7064 19.4897 25.7282 19.4365 25.7523 19.3816L25.7717 19.3607V19.3405C25.8417 19.1791 25.9117 19.0226 25.9701 18.8612L26.2641 18.3981V18.3828H26.2477L26.0603 18.6708L26.2454 18.3094L26.8988 19.681C26.9042 19.6923 26.9089 19.7044 26.9143 19.7157L26.9509 19.9295L26.9595 19.9359L26.9657 19.9287L26.9385 19.7673C27.141 20.1798 27.3131 20.6075 27.4534 21.0469L27.6338 22.0813L27.6509 22.0918L27.6634 22.0724L27.5242 21.2527L27.6719 22.1095L27.7318 22.8865C27.7318 22.9462 27.7318 23.0067 27.7318 23.0664L27.6696 23.9386L27.6852 23.9547L27.7038 23.9386L27.7318 23.5352C27.7322 23.5424 27.7322 23.5497 27.7318 23.5569V23.5674C27.7248 23.7772 27.7093 23.9821 27.6914 24.1846L27.6525 24.1919L27.6144 24.221L27.6089 24.2435L27.6245 24.2597L27.6852 24.2742C27.6852 24.2871 27.6852 24.3016 27.6852 24.3145L27.6789 24.3952L27.6439 24.363L27.6144 24.3234H27.6043V24.3339L27.6743 24.4235L27.77 24.4743L27.7637 24.4904L27.7715 24.5146H27.7972L27.861 24.4864H27.9092L27.9162 24.4969L27.9302 24.492L27.9411 24.4799L27.9909 24.463L28.036 24.4767L28.0842 24.4816L28.0982 24.4678L28.0842 24.4525H28.0562L28.029 24.4461L28.0601 24.4243L28.0889 24.3976H28.1231C28.141 24.4065 28.1565 24.4186 28.1736 24.4283V24.4388L28.1169 24.4783V24.4904H28.1285L28.1993 24.4461C28.239 24.4697 28.2767 24.4966 28.3121 24.5267L28.2678 24.7228L28.4233 24.9003L28.4327 24.935L28.4117 24.9414L28.4062 24.9616L28.4972 25.1891V25.194L28.5058 25.3207L28.4342 25.3747V25.3981L28.4544 25.4029L28.5128 25.3594V25.4554L28.4817 25.4756L28.4762 25.4982L28.498 25.5038L28.5128 25.4949V25.5103L28.4747 25.5522V25.578L28.4949 25.5901L28.4622 25.616L28.4576 25.6393L28.4786 25.645L28.5151 25.6184V25.758L28.5252 25.7838L28.5501 25.7943L29.0635 25.8088L29.1265 25.8249L29.191 25.8346L29.1599 25.8443L29.1327 25.8895L29.1708 25.9242L31.0088 25.8903L31.0469 25.8483L31.0088 25.808L30.0428 25.8241L30.0941 25.7483H30.1229L30.1509 25.7854L30.1952 25.7676L30.203 25.7547L30.4363 25.7741L30.4511 25.7612L30.4402 25.7426H30.5227L30.4947 25.7491L30.483 25.7701L30.504 25.7838L30.6285 25.7571L30.6347 25.7692L30.6798 25.787L30.7078 25.7491V25.741L30.7622 25.7289C30.8766 25.7467 30.9956 25.7612 31.1053 25.7838C31.0796 25.7378 31.0477 25.6966 31.0205 25.6523V25.6458L31.008 25.6377C30.9847 25.599 30.959 25.5619 30.9303 25.524L30.791 25.0713L30.3897 24.647L30.3578 24.6034H30.3469V24.6147L30.3718 24.6502L30.3663 24.6655L30.3741 24.68L30.4115 24.7083L30.6782 25.0939L30.5118 24.9189L30.2714 24.6139H30.2613V24.6244L30.3881 24.7946L30.1758 24.5921H30.1517V24.6171L30.1415 24.609C30.1019 24.5719 30.0638 24.5332 30.0241 24.4953L30.0544 24.5243H30.0684V24.5106L29.8849 24.3371C29.8152 24.2679 29.7503 24.1937 29.6904 24.1153C29.4633 23.7812 29.3598 23.3762 29.2719 22.9776C29.1739 22.5371 29.1047 22.0901 29.0386 21.6448L28.9071 20.6137C28.8644 20.2102 28.8169 19.8068 28.7975 19.4034C28.7804 19.0541 28.8091 18.6611 28.7772 18.2924L28.7835 18.2271L28.6909 17.6897L28.7586 17.8939L28.8605 18.0827H28.8745V18.0681L28.7072 17.6712L28.6862 17.371C28.7349 17.3158 28.7868 17.2638 28.8418 17.2153L28.9017 17.2L29.1008 17.1282L29.0767 17.2145L29.0837 17.2258L29.0946 17.2194L29.1226 17.1185L29.3093 17.0273L29.4866 16.9184L29.5006 16.9128H29.5053V16.9079L29.972 16.5602L30.2053 16.2818V16.2713H30.1944L30.0023 16.5077L29.769 16.6981L30.0723 16.3811L30.4612 15.8026L30.742 15.1636L30.9342 14.9465H30.9412L30.9466 14.9417L30.952 14.9264L31.0874 14.7723V14.7658V14.7594L31.4219 14.3729L31.3853 14.4398L31.4631 14.339L31.4849 14.3019L31.5323 14.2494L31.5237 14.2623L31.7026 14.0356L31.8699 13.4902L31.8045 13.6935L31.7703 13.754C31.8432 13.5402 31.9055 13.3226 31.957 13.1021H31.9648L31.9018 13.3869L32.0573 12.8754L32.1063 12.7617L32.0161 13.1546L32.0223 13.1643L32.0317 13.1586L32.2152 12.5228L32.4486 12.0145V12.0073H32.4431L32.6228 11.4715L32.6749 11.2561L33.186 10.104V10.0854L33.1751 10.0733L33.2528 9.91196L33.3143 9.7506H33.319L33.354 9.72881L33.3617 9.73527H33.3719L33.7281 9.50129L33.7359 9.4908V9.4795L34.0019 9.21809L34.3714 9.0293L34.3861 9.02365L34.3014 9.08577L34.2944 9.11804L34.3239 9.12612L34.5573 8.96475L34.5627 8.9591V8.95265L34.5876 8.94377L34.5993 8.9349L34.6039 8.92199L34.6483 8.89052L34.6529 8.89698H34.6623L35.4331 8.5686H35.4564L35.4471 8.57909L35.4525 8.59361L35.6439 8.663L35.8399 8.61701H35.9371L36.0305 8.59603L36.3245 8.6041L36.5679 8.58312L36.6457 8.592L36.7235 8.58554L36.9055 8.62104L37.0891 8.59442L37.1832 8.56699L37.2104 8.55488C37.2688 8.54843 37.3271 8.54682 37.3854 8.53633L37.4632 8.5686L37.4757 8.56215L37.471 8.54843L37.429 8.52907L37.4733 8.51938L37.716 8.54117L37.9914 8.48066H38.0248L38.0349 8.47501V8.46371L38.066 8.44919H38.0715H38.0777L38.1135 8.42902H38.164L38.1384 8.44032L38.1236 8.45161L38.1306 8.46452L38.3694 8.50728L38.6027 8.4621L38.6502 8.47017H38.6541L38.7871 8.49195L38.7941 8.50486H38.8089V8.49921L39.0593 8.52907H39.0554V8.54198H39.0679L39.0889 8.52584H39.1184L39.1356 8.51374V8.49276L39.1597 8.48792L39.183 8.49437L39.1947 8.50164L39.1612 8.51938L39.1254 8.5323L39.1184 8.54359L39.1301 8.55085L39.1721 8.53794L39.2102 8.51697H39.2328L39.2561 8.52826L39.1783 8.5807V8.59603H39.1923L39.2616 8.55004L39.2686 8.56215H39.2826L39.3277 8.55166H39.3331L39.2678 8.60087V8.61378H39.2802L39.2911 8.60571L39.2981 8.61782H39.3106L39.337 8.60894L39.2779 8.64202L39.2227 8.60733H39.2063V8.62589L39.2958 8.6872L39.2911 8.70657L39.3106 8.71302L39.3269 8.70495L39.4047 8.74207L39.4825 8.77111H39.4879L39.6069 8.79693L39.6131 8.80823H39.6264L39.6357 8.80177H39.7757L39.9134 8.77595L39.9235 8.76869V8.75821L40.0456 8.68156L40.0503 8.67591V8.66865L40.1016 8.63315V8.62911L40.1117 8.62266C40.126 8.62347 40.1403 8.62347 40.1545 8.62266L39.8823 8.80339V8.81549H39.8939L39.9554 8.77434H39.9795L39.9702 8.78079V8.79532H39.9826L40.0106 8.77515H40.0814L40.0425 8.80581V8.81872H40.0549L40.1164 8.77111L40.1599 8.76546L40.1638 8.77111H40.1701L40.1809 8.76305L40.3614 8.69689L40.517 8.57748L40.5216 8.5678V8.55811L40.559 8.53471H40.5675H40.5916H40.5971V8.52987H40.6025L40.6126 8.521V8.50889H40.6173H40.622L40.7285 8.34753L40.8063 8.26685L40.8569 8.13211L40.8686 8.12727L40.9378 7.93847V7.93282L40.9456 7.91588V7.94009L41 7.77146V7.76178V7.74968V7.32367L40.9704 7.29382L40.9627 7.30189C40.9588 7.25671 40.9518 7.21233 40.9448 7.16796L40.9627 7.17845L40.9806 7.14859L40.9401 6.96867L40.9168 6.95415L40.9074 6.97029C40.8981 6.9364 40.8857 6.90493 40.8748 6.87266L40.8927 6.8775L40.902 6.84684L40.776 6.58947L40.755 6.58301C40.6573 6.38074 40.5482 6.18461 40.4283 5.99564L40.447 6.00048L40.4555 5.9674L40.2805 5.65839L40.2494 5.65032L40.2408 5.68179L40.3023 5.79233C40.1057 5.50189 39.943 5.18826 39.8177 4.85802C39.7627 4.68899 39.7203 4.51582 39.6909 4.34004V4.30454L39.7687 4.65874L39.7811 4.6781H39.8006L39.9507 5.0678L39.9624 5.08071H39.9772L40.1646 5.52446L40.195 5.53414L40.2074 5.49864L39.9663 4.94516L39.9585 4.93548H39.9484L39.8224 4.61275L39.701 4.098V4.05604L39.6886 3.87209L39.7205 3.66716L39.7158 3.46141L39.743 3.30005L39.7376 3.29037L39.7283 3.29602L39.7135 3.36944V3.37347V3.39364L39.6816 3.2589L39.6341 3.12739V3.10157V3.07979V3.12013L39.6116 3.07333H39.6217V3.06284V3.07172V3.08221L39.6147 3.04025L39.603 3.00879H39.5921L39.5882 3.01928L39.6116 3.06042L39.4747 2.88534L39.512 2.92084H39.5284V2.90551L39.2514 2.63926L39.1581 2.53034L38.8999 2.11644L38.9232 2.10111L38.9271 2.07368L38.9232 2.06238L38.9364 2.08175L38.9792 2.09143L38.9893 2.04947L38.9691 2.01397L39.0134 2.08255L39.0469 2.09143L39.0562 2.05674L39.0025 1.95508L39.0103 1.93894L39.0383 1.97041H39.0609V1.9454L39.0267 1.90586L39.0352 1.88892L39.1052 1.9696L39.1884 2.03334L39.2172 2.02608L39.211 1.9938L39.1286 1.92603L39.0578 1.84535L39.0733 1.8155L39.0982 1.851L39.1223 1.85665L39.1278 1.83325L39.0928 1.77758L39.1037 1.75579L39.1371 1.79371H39.1659L39.1706 1.76628L39.127 1.70738V1.70254L39.2211 1.77354L39.2476 1.76709L39.2421 1.73643L39.1449 1.66462L39.1566 1.64122L39.1768 1.60976L39.2437 1.67914H39.2779V1.64364L39.2211 1.58555L39.2911 1.61056L39.3176 1.59604L39.3028 1.56619L39.2157 1.53472L39.2312 1.49116L39.3144 1.47825L39.3969 1.44759L39.4055 1.42903L39.3922 1.41289L39.3549 1.40724H39.4163L39.4327 1.39191L39.421 1.37336L39.3907 1.36932V1.35319L39.3782 1.34189L39.2553 1.30155L39.2499 1.25637L39.4265 1.32253L39.449 1.30881L39.4366 1.28299L39.33 1.24427L39.3588 1.22652L39.3417 1.19425L39.2211 1.15552L38.9668 1.04256L39.0811 0.618173V0.639956L39.099 0.658514L39.1184 0.639956L39.1278 0.446319L39.1667 0.301897L39.1612 0.291411L39.1511 0.296251L39.1309 0.370478V0.252682L39.1457 0.247841L39.1542 0.233319L39.1394 0.125205L39.0539 0.0630784L39.022 0.0719548C39.0169 0.0492118 39.0104 0.0268393 39.0025 0.00498713C38.9776 -0.0458427 38.847 0.309967 38.847 0.252682C38.7116 0.39549 38.6377 0.598809 38.5358 0.767435L38.4993 0.790026L38.3025 0.769048L38.1166 0.807776H38.1104H38.1026L37.9237 0.888459L37.8506 0.833595H37.8381V0.846502L37.9004 0.894912L37.6203 0.843277V0.835208H37.6126L37.597 0.840856L37.4982 0.823911L37.506 0.811004L37.4943 0.802936L37.45 0.815845L37.3722 0.80132L37.3629 0.809389L37.3707 0.819878L37.4088 0.827947L37.2182 0.885231C37.18 0.889256 37.1421 0.895722 37.1046 0.904594L37.0712 0.894107H37.0642L37.0603 0.899753L36.7585 0.856991L36.75 0.864253L36.757 0.873936L36.8449 0.886843L36.6193 0.963493L36.4559 0.952198L36.2926 0.963493H36.2872H36.2809L36.2661 0.968333L36.0499 1.02158H36.0445H36.0375L36.0211 1.03288L35.9721 1.05144L35.9675 1.05628V1.06193H35.962H35.9566L35.9068 1.0942H35.899H35.8936V1.09904L35.8251 1.13857C35.6848 1.13778 35.5456 1.11213 35.4137 1.06273C35.3529 1.03799 35.2951 1.00575 35.2418 0.966721L35.129 0.752105L35.1173 0.707729L35.1111 0.698855H35.101L35.0761 0.641571L35.0403 0.591549L35.0092 0.535878L34.9197 0.440671L34.8069 0.468105L34.7673 0.557661L34.7439 0.792447L34.7712 0.917503V0.935253V0.948163L34.7805 0.954619V0.965913L34.7727 1.05305L34.7875 1.06919L34.8054 1.05708V1.04902L34.8357 1.12244L34.8723 1.26202C34.8801 1.3427 34.8801 1.41854 34.8933 1.50406C34.7655 1.55411 34.6318 1.58586 34.4958 1.59846H34.4865C34.4484 1.6025 34.4087 1.59846 34.3706 1.59846L33.816 1.35641L33.8074 1.36045V1.37013L34.1046 1.51697L33.9762 1.496L33.9669 1.50406L33.9747 1.51455L34.1699 1.54763L34.2695 1.59362H34.2454L34.2368 1.58717L34.2034 1.59281C33.9903 1.58071 33.7788 1.54775 33.5718 1.49438C33.5275 1.45508 33.4786 1.42174 33.4263 1.39514L33.4216 1.38465L33.2606 1.32898C33.249 1.32898 33.2388 1.32011 33.2272 1.31769L33.2093 1.31123L33.2964 1.3306L33.3057 1.32333L33.3003 1.31204L33.2077 1.2838L32.9892 1.21845L32.9775 1.2249L32.9829 1.23701L33.0802 1.26686L32.9907 1.24669L32.9783 1.25395L32.9837 1.26524L33.0576 1.29106L32.8896 1.31365H32.8997H32.9114L32.9192 1.30478L32.9114 1.29671L32.7955 1.31365L32.6858 1.35077L32.7123 1.33302L32.7185 1.32333V1.31204L32.7496 1.29832H32.7535V1.29348L32.8313 1.2596L32.8795 1.24427L32.9355 1.26524H32.9417L32.9682 1.25637L32.9612 1.23136L32.9402 1.22087V1.21199H32.9324L32.9223 1.21603L32.8282 1.16923L33.1735 1.24991V1.25718L33.1782 1.26202L33.7483 1.45081L33.7584 1.44517L33.7538 1.43468L33.1883 1.24749V1.24185V1.23781L32.8453 1.10388L32.6563 1.01029L32.6314 1.01594V1.04175L32.6819 1.09016L32.7372 1.1297L32.7652 1.14987V1.16278L32.7714 1.17085L32.7947 1.18698H32.5264L32.5124 1.19747V1.21522L32.5684 1.2596L32.6306 1.28622L32.5528 1.31043L32.5481 1.31527V1.32414L32.3926 1.35077L32.3615 1.34108L32.3303 1.32818L32.307 1.33382V1.35722L32.3482 1.38707H32.3202L32.3156 1.39434L32.3226 1.40079L32.3669 1.39514L32.4805 1.4379L32.601 1.44275L32.1483 1.67188L32.1398 1.69528C31.7519 1.73253 31.3619 1.739 30.973 1.71464L30.8836 1.6856L30.8743 1.69125L30.8789 1.70173L30.9085 1.71061C30.2084 1.67108 29.5185 1.567 28.7874 1.48551C28.3181 1.43656 27.8463 1.41824 27.3748 1.43064L26.9198 1.37255L25.2451 1.62428L24.8461 1.72755L25.2475 1.67027C24.8715 1.7503 24.4997 1.85021 24.1336 1.9696C23.8855 2.05028 23.6374 2.13823 23.3838 2.19632L24.8337 1.72755L23.9866 1.94136L23.2376 2.22375C23.1878 2.23262 23.1372 2.23585 23.0867 2.2415L24.1305 1.87036L25.214 1.62831L24.2332 1.77596L22.9568 2.26006C22.746 2.27861 22.5336 2.28829 22.3221 2.2891C21.622 2.29394 20.922 2.3004 20.2219 2.3012L19.1789 2.21165L19.1687 2.21891L19.175 2.22859L20.0142 2.3012C19.4729 2.3012 18.9323 2.29421 18.3925 2.28023L19.1758 2.18422L19.1827 2.17615L19.1758 2.16969L18.3824 2.26651L18.3754 2.27458L18.38 2.27942C16.766 2.23989 15.1591 2.11805 13.5746 1.81469L16.8415 2.05674L16.8485 2.04947L16.8415 2.04141L13.4564 1.79129C13.2876 1.75821 13.118 1.73078 12.95 1.69286L10.1895 1.07322L10.1755 1.04498L9.96551 0.973174L11.1883 1.26686L11.1984 1.26121L11.1929 1.25072L9.86595 0.938481L9.55482 0.831175L9.79594 0.850538L9.8045 0.842469L9.79594 0.832788L9.48481 0.806969L9.28336 0.739196L9.2538 0.756139L9.27013 0.789219L8.74666 0.747265L8.37641 0.666583L8.90378 0.705308L8.93411 0.674651L8.90378 0.639151L8.06528 0.572991L7.87004 0.538298L7.44147 0.360796L6.98566 0.321263H6.71964L6.5563 0.363216C6.4054 0.352728 6.2545 0.342239 6.10438 0.345466L5.74114 0.301092L5.72636 0.315614L5.74114 0.333364H5.74891L5.49534 0.350307L5.83681 0.260751L5.84303 0.248649L5.83136 0.241386L4.82797 0.494729L4.53706 0.643184L4.83108 0.51974H4.8373L5.27211 0.408398L5.81659 0.357568H5.91926C5.76305 0.361782 5.60721 0.375523 5.45256 0.398717C4.9667 0.488156 4.51127 0.706016 4.13026 1.03127L3.83235 1.17569L3.44344 1.50406L3.0973 1.88166L3.13619 1.80097L2.55749 2.76916L2.28448 3.62681L2.29692 3.64698L2.31559 3.63569L2.48671 3.10157L2.72006 2.5957L2.59483 3.30973C2.49838 3.53483 2.40348 3.75994 2.3257 3.99069L2.02935 4.68456L1.8839 5.4107L2.05424 4.90805C1.90008 5.57418 1.79246 6.25097 1.73222 6.93317L1.761 6.00532L1.73689 6.12716L1.72522 6.9961C1.58132 8.57263 1.6171 10.1992 1.57821 11.7789C1.56343 12.3921 1.52765 13.0045 1.48642 13.6161L1.25308 14.527L1.01973 14.9304L0.708599 15.2668L0.467472 15.4435L0.455026 15.504L0.509475 15.5178L0.876609 15.2459L0.441026 15.972L0.448026 16.0075H0.483808L0.610592 15.872L0.506363 16.0253V16.0398H0.521921L0.683708 15.7977L0.635483 15.9099L0 16.8619ZM0.5717 17.6155L0.563145 17.6357L0.573258 17.5703L0.5717 17.6155ZM39.2942 1.41854L39.351 1.425L39.2935 1.43226V1.425L39.2942 1.41854ZM39.26 1.22571L39.2654 1.27331L39.2437 1.26605L39.2507 1.24507L39.2437 1.22087L39.26 1.22571ZM39.2328 1.31123L39.267 1.32253V1.33624H39.2437H39.2398V1.33221L39.2328 1.31123ZM32.8865 1.19344H32.8927H32.9021L32.8632 1.20957H32.8577V1.19747L32.8507 1.18618L32.8406 1.17972L32.8865 1.19344ZM0.21779 16.6207L0.528921 16.1624L0.434805 16.3851L0.21779 16.6207ZM0.661929 16.1366L0.654152 16.1414L0.650262 16.1463L0.682931 16.0591L0.670486 16.1398L0.661929 16.1366ZM0.615261 16.7659L0.65804 16.4658H0.676707L0.692265 16.4488V16.4432L0.605149 17.0136L0.615261 16.7659ZM0.763047 17.6131L0.775493 17.4267L0.784048 17.4178L0.790272 17.4057L0.903055 17.037L0.763047 17.6131ZM0.89761 17.5994L0.690708 18.7071L0.734268 18.0617L0.838497 17.7099H0.864942L0.882055 17.6849L0.89761 17.5994ZM0.869609 16.7038L0.924834 16.3698L0.974616 16.2455L0.869609 16.7038ZM0.833051 15.8082L0.84083 15.7582L0.872721 15.6517L0.898388 15.613L0.833051 15.8082ZM0.864942 15.5145L0.826051 15.5557L0.884388 15.4492L0.864942 15.5145ZM0.829939 15.8284L0.838497 15.8469L0.855609 15.8582L0.810494 15.9623L0.829939 15.8284ZM0.812827 16.2003L0.700044 16.6844L0.756823 16.3052L0.812827 16.2003ZM0.744378 16.1197L0.70082 16.2205L0.756823 16.0398L0.744378 16.1197ZM0.703153 16.8829L0.767714 16.5973L0.805048 16.6126L0.840051 16.5844L0.84783 16.565L0.703153 17.3799H0.698487H0.693044V16.8958L0.700044 16.8918L0.703153 16.8829ZM0.668929 17.3815L0.664262 17.388L0.586479 17.5719L0.591925 17.4227L0.669707 16.8934V17.3775L0.668929 17.3815ZM0.64715 18.3303L0.654928 17.977L0.675931 17.8535V17.864L0.683708 17.8721L0.691486 17.864V17.7631L0.746711 17.4404H0.756047L0.735823 17.7333L0.65804 18.0641L0.672041 18.1052L0.711711 18.1093L0.672819 18.6862L0.64715 18.3303ZM0.785603 18.6135L0.77316 18.6724V18.6837L0.777048 18.6926L0.73349 19.0734L0.688374 18.8169H0.705487L0.717156 18.8023L0.820606 18.3021L0.785603 18.6135ZM0.831497 18.8064L0.81516 18.8604L0.84394 18.5756V18.5619L0.831497 18.8064ZM0.852497 18.7386L0.870388 18.4602L0.99095 17.9318H0.995617L0.913946 18.3933L0.925613 18.4199H0.954392L0.852497 18.7386ZM1.12474 17.8592L0.973838 18.3433L1.14885 17.6107H1.1574H1.16752L1.12474 17.8592ZM1.16829 16.9378L1.0944 17.1266L1.23208 16.3738V16.352L1.22119 16.3359L1.22585 16.3028L1.26552 16.3383L1.30597 16.3076L1.32153 16.1963C1.33164 16.1963 1.34097 16.2028 1.35031 16.2036L1.32619 16.5384L1.30597 16.59L1.31219 16.5287L1.30597 16.5214L1.29741 16.5287L1.28419 16.6457L1.26474 16.6949V16.6893L1.2593 16.6844L1.26552 16.6489L1.25152 16.6279L1.23285 16.6401L1.16829 16.9378ZM1.13952 16.3044L1.16441 16.1293L1.16985 16.1213L1.14107 16.306L1.13952 16.3044ZM1.18696 16.2996L1.22119 16.0487L1.23285 16.0317L1.18696 16.2996ZM7.51613 0.485853H7.51147L7.53325 0.493116H7.51691L7.51613 0.485853ZM32.7084 1.55005L32.7325 1.53714L32.7099 1.55167L32.7084 1.55005ZM37.5558 0.87797H37.5457L37.5752 0.866673L37.5558 0.87797ZM38.749 8.39433H38.7568H38.749ZM35.7932 8.53552L35.6431 8.52826L35.6206 8.52342L35.6633 8.51293L35.7948 8.52181V8.52826L35.7932 8.53552ZM35.6307 8.48147H35.6066C35.626 8.48147 35.6454 8.48147 35.6649 8.47662L35.6307 8.48147ZM29.9961 16.1463L30.0039 16.135L29.9922 16.1729L29.9961 16.1463ZM29.9183 25.641L29.9222 25.6748L29.9494 25.6934L29.9378 25.7168H29.7775L29.839 25.624C29.8639 25.624 29.888 25.624 29.9168 25.6297L29.9183 25.641ZM9.18768 17.2024L9.17602 17.2242L9.18301 17.1814L9.18768 17.2024ZM9.33703 25.7233L9.23435 25.7305L9.25302 25.7079L9.33703 25.716V25.7233ZM8.10184 24.8027L8.09717 24.7954H8.10417L8.10184 24.8027ZM8.07228 24.8834L8.02561 24.868L7.98205 24.8454L8.00616 24.7849L8.07228 24.8834ZM3.65112 3.97859L3.77557 3.70104L3.61378 4.14237L3.65656 4.00199V3.98666L3.65112 3.97859ZM3.65112 3.8858L3.67212 3.81884L3.76468 3.63165L3.65112 3.8858ZM2.26036 21.2123L2.26503 21.2204C2.26036 21.3366 2.2557 21.4519 2.25025 21.5681L2.2557 21.1373L2.26036 21.2123ZM9.06479 25.6902L9.15968 25.6991L9.12701 25.7402L9.00023 25.7491L9.06479 25.6902ZM9.40236 25.7208H9.37436H9.40236ZM8.60743 18.0367C8.63229 17.9913 8.66468 17.9509 8.7031 17.9172L8.75054 17.9503L8.73188 18.0076L8.57631 18.2771C8.59576 18.1964 8.60198 18.1157 8.62454 18.031C8.61676 18.0318 8.61132 18.0318 8.60743 18.0342V18.0367ZM11.6705 16.0963L11.725 16.0745L11.7304 16.0624H11.7234C11.7802 16.0253 11.8377 15.993 11.8969 15.9615L12.0758 15.9075V15.8946H12.0625L11.9847 15.9171C12.0439 15.8907 12.1044 15.8675 12.166 15.8478L12.1714 15.855L12.2103 15.8695L12.2375 15.8445L12.2827 15.901L12.2889 15.9066H12.2959L11.8829 16.1197L11.6495 16.1108L11.6705 16.0963ZM12.3706 15.8873L12.4149 15.8986L12.1123 16.1253L11.9311 16.1164L12.3706 15.8873ZM12.3939 15.8752L12.4242 15.859L12.4616 15.8921L12.3939 15.8752ZM12.4118 15.8469L12.3698 15.8687H12.3542V15.8599L12.3495 15.851L12.3107 15.7985L12.3488 15.7937L12.4118 15.8469ZM38.8345 1.89295C38.8345 1.88892 38.8345 1.88408 38.8345 1.87924V1.88327V1.89134V1.89295ZM28.5882 25.3198L28.582 25.3045L28.5882 25.3005C28.5878 25.3069 28.5878 25.3134 28.5882 25.3198ZM22.9879 16.6699C22.9949 16.6772 22.998 16.6868 23.0058 16.6925C23.0385 16.7173 23.0747 16.7366 23.1131 16.7498L22.6464 16.6933C22.7623 16.6893 22.8743 16.678 22.9863 16.6699H22.9879ZM23.7447 25.2731L23.7276 25.2569L23.7393 25.2214C23.74 25.2392 23.7447 25.2553 23.7447 25.2731ZM23.7447 25.3537L23.7556 25.3424C23.7556 25.3731 23.7556 25.4005 23.7618 25.4312L23.7385 25.4272L23.7253 25.4336L23.7447 25.3537ZM28.5921 25.2545L28.5758 25.2666V25.2601L28.5804 25.2553V25.2488L28.5735 25.2198V25.0851C28.5816 25.1423 28.5865 25.1999 28.5882 25.2577L28.5921 25.2545ZM28.5921 25.3763V25.4029L28.5742 25.4142V25.3279L28.5921 25.3763ZM28.5548 17.5308C28.561 17.5211 28.5711 17.5138 28.5773 17.5042L28.5882 17.5961C28.5719 17.5776 28.5672 17.555 28.5501 17.534L28.5548 17.5308ZM29.2245 16.9362L29.2618 16.9297L29.184 16.962L29.2245 16.9362ZM30.3516 15.6049L30.2839 15.8058L30.3158 15.6606L30.3516 15.6049ZM38.1734 8.36851L38.1539 8.37981V8.37335L38.1734 8.36851ZM38.3336 8.3564L38.2255 8.40562L38.2877 8.35883L38.3336 8.3564ZM32.6384 1.5912C32.6251 1.59685 32.6096 1.60088 32.5956 1.60572L32.6493 1.5791L32.6384 1.5912ZM1.26552 17.5146H1.25152L1.2383 17.5195L1.32697 17.0427V17.0338L1.33241 17.0185L1.35031 17.0515L1.38686 17.0572L1.26552 17.5146ZM1.54943 16.9878L1.42109 17.4388L1.57665 16.5432L1.54943 16.9878ZM1.74155 16.2092L1.74622 16.2197L1.62644 16.661L1.63577 16.519L1.74933 16.0954L1.74077 16.1971L1.74155 16.2092ZM2.18569 12.71H2.17947L2.18958 12.5979V12.7028L2.18569 12.71ZM2.21836 12.71H2.21291L2.20669 12.5228L2.22381 12.7132L2.21836 12.71ZM2.27436 13.0481L2.24947 12.777V12.7641V12.7463L2.24325 12.731L2.19269 12.1807L2.18258 12.1711L2.17325 12.1807L2.17947 12.3728H2.14369L2.12891 12.3913C2.15536 12.0578 2.18128 11.7249 2.20669 11.3925L2.27436 13.0481ZM4.02369 3.12416L3.98947 3.20485V3.19839V3.19274L4.02214 3.12739L4.02369 3.12416ZM3.59433 3.98262L3.56944 4.07783V4.0867L3.58189 4.0149L3.59433 3.98262ZM3.59433 4.21176V4.21741L3.54766 4.3465L3.59433 4.21176ZM3.11675 15.4266C3.1043 15.588 3.08797 15.759 3.06386 15.9373C3.03119 15.9704 3.00008 16.0059 2.96741 16.0398L3.11675 15.4266ZM2.12113 24.5074V24.5025V24.4977H2.1258L2.12113 24.5074ZM2.70606 25.6845L2.71306 25.6603H2.77295V25.6732L2.70606 25.6845ZM2.80251 25.6644V25.6571H2.84295L2.80251 25.6644ZM3.24276 25.7007L3.22798 25.6829L3.40377 25.6982L3.24276 25.7007ZM4.21115 25.8168L4.87619 25.8072L4.89175 25.8209L4.21115 25.8168ZM4.84664 25.8475L4.91819 25.8427L4.92908 25.8515L4.84664 25.8475ZM5.02398 25.8298V25.8209L5.01542 25.816H5.00764L4.9952 25.8056H5.03253L5.04887 25.8507L5.02398 25.8298ZM4.71285 24.5606H4.69885C4.67318 24.5275 4.6444 24.4985 4.62107 24.4654L4.71285 24.5606ZM4.15981 20.7589C4.19015 20.6387 4.21504 20.5168 4.25238 20.3974C4.28971 20.278 4.3426 20.1699 4.38849 20.0569L4.15981 20.7589ZM7.37302 21.8134L7.39168 21.8626C7.39868 21.8933 7.40413 21.9239 7.41035 21.9546L7.37302 21.8134ZM7.89727 24.5913L7.89105 24.5994V24.6115L7.89883 24.768L7.88093 24.7446L7.87316 24.6445L7.89883 24.5469L7.89727 24.5913ZM7.85916 24.5913L7.84516 24.6817L7.82726 24.6211L7.8226 24.5558V24.5509L7.83505 24.221L7.85371 24.2339L7.87004 24.2161V24.2089C7.87938 24.2298 7.88949 24.25 7.89883 24.271V24.5074L7.85916 24.5913ZM7.94316 24.6123V24.6034L7.93849 24.5961V24.5622V24.4896V24.4856V24.4775L7.93305 24.4719V24.3412C7.94005 24.3565 7.94861 24.3718 7.95639 24.3872C7.96105 24.4937 7.97505 24.5994 7.9735 24.7099L7.95639 24.7551L7.94316 24.6123ZM8.06917 24.9245L7.96805 24.8809L7.97583 24.8632L8.05361 24.9003L8.14228 24.9132H8.14851H8.15473H8.16562H8.16951L8.06917 24.9245ZM8.17107 24.8704L8.1664 24.8785L8.15162 24.8898H8.12828V24.885L8.16406 24.8237C8.17418 24.8237 8.18429 24.8285 8.19362 24.8325L8.17418 24.864L8.17107 24.8704ZM8.27685 24.8704L8.25118 24.8874L8.25974 24.8729L8.26596 24.8575H8.27063C8.27452 24.8575 8.27607 24.8656 8.27996 24.8696L8.27685 24.8704ZM8.88822 25.766V25.7773L8.82211 25.6813L8.81744 25.6676L8.875 25.6732V25.7192H8.91934L8.94889 25.6894L8.89755 25.7523L8.88822 25.766ZM9.07257 25.8193L9.10835 25.8241L9.03523 25.8378L8.95745 25.8249L8.92711 25.8112H8.93256H8.93878L8.966 25.7854L9.11146 25.7757L9.11612 25.7991L9.13168 25.816L9.07023 25.8104L9.06245 25.8177L9.07257 25.8193ZM9.52448 25.8289L9.20091 25.8088L9.21724 25.7838L9.23124 25.7555L9.24213 25.7765H9.25535L9.25924 25.7628L9.25224 25.7507L9.34325 25.7442V25.7709L9.36269 25.7886L9.37981 25.7709V25.7515L9.5836 25.7378L9.52448 25.8289ZM9.62482 25.8354L9.7026 25.7475H9.70883L9.92273 25.7668L9.9344 25.8112L9.98962 25.7983L10.0052 25.7741L10.125 25.7854V25.8273V25.837L10.1312 25.8435L9.62482 25.8354ZM10.2284 25.8394V25.8451H10.1584L10.1646 25.8386V25.8281V25.7894L10.251 25.7975L10.2284 25.8394ZM10.8258 25.2166L10.8367 25.2214L10.8795 25.2125L10.8973 25.169L10.9868 25.2497L11.0762 25.361L11.0895 25.3683V25.5006L11.0832 25.4812L11.07 25.4651L10.7706 25.223C10.7581 25.2061 10.7496 25.1875 10.7371 25.1698L10.8258 25.2166ZM8.46353 18.8491C8.48375 18.6991 8.51953 18.5506 8.55064 18.4022L8.6751 18.1851L8.46353 18.8491ZM8.60665 18.478L8.7311 18.0875L8.79799 17.9697H8.8081L8.60665 18.478ZM8.80966 17.8785L8.78477 17.8705V17.864V17.8559C8.80266 17.8471 8.82055 17.8366 8.83844 17.8285L8.80966 17.8785ZM8.90922 17.8866H8.87578L8.89133 17.8519L8.917 17.868L8.94345 17.8826L8.90922 17.8866ZM9.16901 17.7252L9.00023 17.8737L8.95122 17.8559L8.90378 17.8285L8.92322 17.7874L8.93411 17.7817C8.95356 17.7696 8.96367 17.7494 8.98 17.7341L9.04068 17.789L9.09979 17.743L9.14023 17.4614L9.18846 17.5106L9.16901 17.7252ZM9.23047 17.3444L9.20557 17.3137L9.1768 17.2863L9.20091 17.2436L9.23047 17.3444ZM9.20791 17.1734L9.19701 17.1169C9.21371 17.0344 9.24285 16.9552 9.28336 16.8821L9.36892 16.8329L9.42803 16.8111L9.20791 17.1734ZM9.40314 16.7312C9.4468 16.6924 9.50134 16.6692 9.55871 16.6651L9.55248 16.6699L9.40314 16.7312ZM10.9922 17.0572L10.9331 17.0846V17.0709L10.9891 17.0475L11.0389 17.0136L10.9922 17.0572ZM11.8696 16.3052L11.4807 16.3238H11.3959C11.4691 16.2527 11.5471 16.1872 11.6293 16.1277L11.8486 16.1382L11.7148 16.2076L11.7109 16.2205L11.7242 16.2253L11.8883 16.1398L12.0828 16.1479L11.8696 16.3052ZM11.9109 16.3052L12.432 15.9107L12.4849 15.9252L12.5331 15.968L12.0812 16.2907L11.9109 16.3052ZM12.6817 16.114L12.1426 16.2641L12.5541 15.9704H12.5837L12.6039 15.9494L12.6817 16.022L12.7315 16.0285L12.7563 15.9873L12.7999 15.9986L12.6817 16.114ZM12.7299 15.9526L12.7688 15.9777L12.7478 15.9728L12.7423 15.9655L12.7299 15.9526ZM12.8621 15.9389L12.9244 15.9599L12.8582 15.9873L12.866 15.9639L12.8621 15.9389ZM13.1406 16.0737L12.8746 16.0051L12.9601 15.972L13.2059 16.0527L13.1406 16.0737ZM13.1842 16.085L13.2448 16.0688L13.6695 16.2116L13.1842 16.085ZM19.4985 16.3819H19.4029L19.3928 16.3883V16.4012L18.3373 16.494C18.6966 16.4061 19.056 16.3101 19.4262 16.3222C19.5019 16.3288 19.5772 16.3396 19.6518 16.3544L19.4985 16.3819ZM19.8431 16.3819C19.8828 16.3899 19.9209 16.3964 19.9614 16.4053L19.777 16.3956L19.8431 16.3819ZM23.0447 25.2061L23.0789 25.1206L23.0937 25.1423L23.1108 25.1617L23.0447 25.2061ZM23.173 25.0673V25.0568C23.211 25.0585 23.2485 25.0478 23.2803 25.0262H23.3122L23.2096 25.0947L23.173 25.0673ZM23.355 25.0778L23.341 25.1028H23.3185L23.2897 25.0964L23.3675 25.0471L23.355 25.0778ZM23.3488 24.9753C23.3597 24.9648 23.3729 24.9544 23.3822 24.9439C23.3916 24.9334 23.4079 24.9172 23.4211 24.9043V24.9455L23.3488 24.9753ZM23.5915 25.0843L23.5487 25.0471L23.5005 25.0181L23.5114 24.964L23.5409 24.981L23.5759 24.9697L23.6311 24.9205L23.5915 25.0843ZM23.6444 25.783V25.7628L23.6607 25.783H23.6444ZM23.7105 24.9761C23.7105 24.981 23.7105 24.9858 23.7105 24.9907L23.7011 25.0028L23.7105 24.9761ZM23.7105 25.6442L23.7665 25.5441V25.5966L23.7105 25.6442ZM23.7315 25.6716H23.7393H23.7478L23.7688 25.6579C23.7688 25.6748 23.7688 25.6926 23.7688 25.7095L23.7517 25.6974L23.7315 25.6716ZM23.9267 25.7563H23.9003L23.9547 25.7491H23.9586H23.9501L23.9267 25.7563ZM24.9216 25.712H24.9356H24.9433L24.9511 25.7079L25.0079 25.6934L25.018 25.7047L25.0328 25.7087L24.9216 25.712ZM25.0343 25.7047H25.0398L25.046 25.6982L25.053 25.7047H25.0639H25.0701H25.0343ZM24.6003 25.7225V25.7281V25.7346L24.3732 25.7926L24.0496 25.8064L24.1538 25.7354L24.3421 25.7233L24.6003 25.7225ZM25.2226 24.8164L25.5251 25.0786L25.277 24.889L25.2716 24.8624H25.2451L25.1782 24.8115H25.1705L25.1121 24.768L25.2226 24.8164ZM24.6166 24.1612V24.0991L24.6229 24.0919L24.6166 24.1612ZM24.6944 23.26L24.626 24.0483L24.6151 24.0596C24.611 23.6622 24.6316 23.265 24.6765 22.8703L24.7193 22.8203L24.6937 23.2584L24.6944 23.26ZM24.7232 22.7759L24.6804 22.826C24.6882 22.7598 24.6874 22.6928 24.6975 22.6267C24.6975 22.6033 24.7069 22.5815 24.7108 22.5581L24.7528 22.5121L24.7232 22.7759ZM24.759 22.4629L24.7217 22.5048C24.7427 22.383 24.766 22.2628 24.7924 22.1418L24.759 22.4629ZM24.8305 21.9788V21.9594C24.8438 21.9078 24.8586 21.8578 24.8726 21.8061L24.8383 21.9675L24.8305 21.9788ZM24.9558 21.5028C24.9682 21.46 24.9799 21.4164 24.9931 21.3745L24.9558 21.5028ZM26.0004 18.7515C26.0709 18.558 26.1302 18.3602 26.1777 18.1593L26.2353 18.2795L26.0004 18.7515ZM27.777 24.442L27.7458 24.4323L27.7163 24.4194L27.7311 24.3186C27.7443 24.3186 27.7575 24.3186 27.77 24.3186V24.3315V24.3573L27.7933 24.3654L27.8065 24.3597L27.777 24.442ZM27.9201 24.3807L27.9076 24.3694L27.9395 24.3266C27.9566 24.3266 27.973 24.3396 27.9901 24.3444L27.9201 24.3807ZM28.3035 24.7034L28.3277 24.5421L28.3961 24.8358L28.3035 24.7034ZM28.4591 24.8269L28.4529 24.8204H28.4451L28.4 24.6445C28.4214 24.67 28.4412 24.697 28.4591 24.7252C28.4653 24.7381 28.4653 24.7535 28.4708 24.7664L28.477 24.8874L28.4591 24.8269ZM28.5633 25.5191L28.5843 25.4973C28.5847 25.503 28.5847 25.5086 28.5843 25.5143L28.5672 25.5288L28.5633 25.5191ZM28.7189 25.7354L28.6473 25.7233L28.5797 25.6708L28.5595 25.5788L28.5812 25.5635C28.5812 25.5829 28.5812 25.6014 28.5812 25.62L28.5758 25.6289L28.582 25.6636H28.617L28.6372 25.6393C28.6769 25.6393 28.715 25.6393 28.7562 25.6353L28.7866 25.6652L28.7749 25.691V25.7225L28.7967 25.7402L28.7189 25.7354ZM28.8107 25.7354L28.8216 25.7305L28.8301 25.7208L28.8402 25.7039L28.8854 25.7337L28.8107 25.7354ZM28.911 25.7176L28.8535 25.6813L28.8877 25.6256H28.9048V25.6523L28.9367 25.6652L28.911 25.7176ZM29.0215 25.6966V25.7136V25.7289H28.9857L29.0518 25.6184H29.0588L29.0215 25.6966ZM29.6321 25.8314L29.4361 25.8354L29.4944 25.8168L29.5201 25.7886L29.5131 25.7523H29.6375L29.6235 25.7838V25.8112L29.6321 25.8314ZM29.3808 25.7289H29.3746L29.3707 25.7337L29.142 25.7289L29.1965 25.6119H29.3202L29.3287 25.6434L29.3777 25.6313L29.3878 25.6135H29.4228L29.4049 25.6539L29.4197 25.7055L29.468 25.6918L29.5115 25.6111L29.531 25.6377H29.566L29.5963 25.6595L29.6321 25.6418L29.6468 25.6168H29.6959L29.65 25.7152L29.3808 25.7289ZM29.944 25.8144V25.8241L29.6982 25.8298L29.706 25.8241L29.7122 25.8168L29.7557 25.7499H29.9199V25.7862L29.9471 25.8056L29.944 25.8144ZM30.1314 25.7015H30.112L30.1439 25.6539H30.1509L30.1314 25.7015ZM30.2294 25.7015L30.2536 25.6627L30.3632 25.6724V25.6902V25.7031L30.2294 25.7015ZM30.5927 25.7015H30.4371L30.448 25.6789C30.497 25.6845 30.5452 25.6926 30.5942 25.6999L30.5927 25.7015ZM30.4698 24.7559L30.7031 25.0294L30.847 25.3521L30.686 25.1423L30.6938 25.1278V25.1101L30.7327 25.1657H30.7529L30.7576 25.1464L30.4698 24.7559ZM28.7096 17.9261C28.71 17.9218 28.71 17.9175 28.7096 17.9132V17.8939V17.9261ZM28.6473 17.4695L28.638 17.4178L28.6481 17.4057L28.6473 17.4695ZM29.1063 17.0927L28.9141 17.1734L28.8815 17.1822C28.897 17.1701 28.911 17.158 28.9266 17.1467L29.1125 17.0733L29.1063 17.0927ZM29.121 17.0378L28.9919 17.0895L29.1195 17.0346L29.121 17.0378ZM29.1288 17.0814L29.135 17.0596L29.3031 16.9902L29.1288 17.0814ZM29.4135 16.92L29.1436 17.0265V17.0201L29.4827 16.8724L29.4135 16.92ZM29.4913 16.8668V16.8603V16.8539L29.5232 16.8418L29.4913 16.8668ZM30.693 15.1273L30.6502 15.1749V15.1886H30.6674L30.6782 15.1773L30.6627 15.2184L30.6028 15.2862V15.2983H30.6137L30.6456 15.2628L30.2209 16.1035L29.587 16.7966L29.4913 16.8385L29.4827 16.8329H29.4726L29.3466 16.8861L29.2494 16.9103C29.3272 16.8587 29.3948 16.8038 29.4648 16.749V16.7546L29.4773 16.7506L29.4858 16.7304C29.4944 16.7232 29.5045 16.7175 29.5131 16.7102C29.5216 16.703 29.5411 16.6764 29.5574 16.6618V16.6731H29.58L29.6997 16.5118L29.7099 16.5005L29.6811 16.59L29.6873 16.6029L29.7005 16.5981L29.7783 16.4279C29.8413 16.352 29.9035 16.2754 29.9603 16.1931L29.9393 16.323L29.9479 16.3375L29.9611 16.3294L30.0389 16.0761C30.1167 15.9526 30.2022 15.834 30.28 15.7049L30.2178 15.9777L30.2248 15.9889L30.2364 15.9825L30.3842 15.5404C30.4747 15.4006 30.5723 15.2659 30.6767 15.1369L30.6992 15.1119L30.693 15.1273ZM30.7506 15.1135L30.7646 15.0797L30.9131 14.9288L30.7506 15.1135ZM31.7299 13.8541L31.5619 14.1849L31.5541 14.1801L31.5447 14.1841L31.5572 14.1623L31.5673 14.1502V14.1454C31.5774 14.13 31.5899 14.1171 31.5992 14.1018C31.6318 14.0464 31.6612 13.989 31.6871 13.9299L31.7299 13.8541ZM32.041 12.7955V12.7673C32.0464 12.7496 32.0511 12.7318 32.0566 12.7141H32.0682L32.041 12.7955ZM32.4564 11.8935L32.2891 12.2881L32.5886 11.4812L32.4564 11.8935ZM32.1133 12.6253L32.076 12.6923C32.2554 12.1071 32.4631 11.5316 32.6983 10.9681L32.678 11.081L32.1133 12.6253ZM32.7356 10.9366L32.7512 10.835C32.8048 10.7059 32.8569 10.5768 32.9106 10.4485C32.9168 10.4324 32.9254 10.417 32.9316 10.4009L32.9378 10.3944L32.7356 10.9366ZM33.0351 10.3033L33.0522 10.2565L33.0701 10.2323L33.0351 10.3033ZM33.1276 10.0515L33.1875 9.88292C33.2108 9.84177 33.2381 9.80223 33.2653 9.76512H33.2707L33.1276 10.0515ZM33.2925 9.72236C33.3236 9.67879 33.3454 9.62877 33.3804 9.58842C33.4379 9.53325 33.4993 9.48255 33.564 9.43674H33.6285L33.6371 9.42706L33.6285 9.41819H33.5896C33.6873 9.33181 33.7913 9.25357 33.9008 9.18421L33.3975 9.65781L33.2925 9.72236ZM33.7919 9.37139L33.5795 9.55373L33.5492 9.57309L33.9825 9.17452L33.7919 9.37139ZM34.0525 9.15919L34.0797 9.12531L34.1435 9.10352L34.0525 9.15919ZM34.4414 8.93812L34.2399 9.00106C34.264 8.98896 34.2874 8.97362 34.3115 8.96152L34.4717 8.88084L34.6335 8.81388V8.82113V8.82598L34.4414 8.93812ZM34.7027 8.85744L34.7673 8.81145L35.0208 8.67349L35.031 8.68236H35.0434L35.0909 8.6396L35.1749 8.59119C35.1904 8.58635 35.2052 8.58393 35.22 8.57909H35.2519L35.1974 8.592L35.1865 8.61298L35.2067 8.62589L35.3296 8.59765L34.7027 8.85744ZM35.4735 8.51616L35.5023 8.4968L35.5241 8.49034V8.49437L35.535 8.50325H35.5288V8.50889L35.5039 8.51454L35.4735 8.51616ZM35.6602 8.63476L35.521 8.59603H35.6766L35.7987 8.61378L35.6602 8.63476ZM35.8819 8.50164L35.7613 8.49195H35.7722L35.7831 8.47259H35.7777H35.8057L35.8975 8.50325L35.8819 8.50164ZM36.053 8.53714L36.0351 8.53149H36.0305H35.9962V8.521L35.99 8.51132L36.088 8.52261L36.053 8.53714ZM36.1401 8.54198L36.1557 8.52987L36.2506 8.54036L36.1401 8.54198ZM36.4513 8.53471L36.1619 8.50002L36.1495 8.49195H36.1355L35.9612 8.47259L35.9006 8.45161C35.9224 8.45161 35.9434 8.44516 35.9644 8.44597C36.1068 8.45203 36.2487 8.4682 36.389 8.49437L36.3945 8.50244H36.4062V8.49437H36.4132L36.4591 8.52584L36.4513 8.53471ZM36.5213 8.53471L36.4902 8.51858L36.5516 8.52826L36.5353 8.53391L36.5213 8.53471ZM36.8449 8.56537H36.8962H36.8254H36.8449ZM37.9338 8.45161H37.8926C37.9078 8.4488 37.9229 8.44503 37.9377 8.44032L37.9766 8.43548L37.9338 8.45161ZM38.1819 8.41369H38.1563L38.2341 8.36851H38.2519L38.1858 8.41772L38.1819 8.41369ZM38.2722 8.47098L38.1944 8.45726L38.2683 8.42499L38.2753 8.43305H38.2862L38.3453 8.39594H38.3523L38.4145 8.36851H38.4503L38.2862 8.45807L38.2815 8.47259L38.2947 8.47985L38.3204 8.47178L38.3266 8.4855H38.3422H38.3476L38.2722 8.47098ZM38.3562 8.43548L38.4977 8.35479H38.5234L38.3562 8.43548ZM38.4612 8.47178L38.3779 8.47743L38.5078 8.41369L38.4627 8.45645V8.46452L38.4612 8.47178ZM38.5281 8.44032V8.44516L38.5195 8.45081V8.45645V8.46291L38.49 8.46855L38.5872 8.37738L38.6191 8.36125L38.6416 8.36689L38.6222 8.38061L38.539 8.43709L38.5281 8.44032ZM38.6626 8.41692L38.602 8.44032H38.595H38.5911L38.5662 8.44677L38.6829 8.37173L38.714 8.379L38.6626 8.41692ZM38.8034 8.44273L38.798 8.44838V8.45484H38.7793L38.7848 8.44677L38.8291 8.43386L38.8034 8.44273ZM38.8625 8.4621V8.45726L38.8851 8.45L38.8913 8.46049H38.9045L38.9216 8.45565V8.4613V8.46694L38.8625 8.4621ZM39.0523 8.4855L38.9434 8.47098L38.9605 8.44758H38.9668H38.98V8.45484H38.9932L39.0049 8.44919V8.46291L39.0212 8.46855L39.05 8.46371V8.47017L39.0523 8.4855ZM39.8535 8.68236L39.7889 8.72431L39.7757 8.72916V8.72351L39.771 8.71867H39.7656L39.7866 8.70657L39.7928 8.6993V8.69043L39.8045 8.69527L39.8154 8.68962L39.8099 8.67752H39.8029H39.8076L39.8535 8.68236ZM39.7524 8.66623L39.7306 8.67994H39.7267L39.7174 8.68801H39.7088L39.7524 8.66623ZM39.7041 8.65009H39.6956L39.6676 8.66945L39.6513 8.66219L39.68 8.63799H39.6995V8.64202L39.7174 8.65009L39.7026 8.65574L39.7041 8.65009ZM39.6264 8.65009L39.603 8.64041L39.6139 8.63234H39.6481L39.6264 8.65009ZM39.6411 8.68236L39.6077 8.69527L39.6295 8.67752L39.6411 8.68236ZM39.3533 8.68236L39.3432 8.68882L39.3238 8.67833L39.3829 8.65412L39.3565 8.6751L39.3533 8.68236ZM39.4078 8.7219L39.3813 8.7106L39.4444 8.67913L39.4513 8.66865L39.4467 8.65735L39.5042 8.61943L39.5307 8.63153L39.4288 8.68962L39.4241 8.6993L39.4303 8.70737L39.4078 8.7219ZM39.4412 8.734L39.477 8.7106L39.4444 8.73561L39.4412 8.734ZM39.4661 8.74288L39.582 8.65412L39.6054 8.66461L39.5276 8.72351L39.5229 8.74045L39.5377 8.74772L39.554 8.74126L39.5276 8.76062L39.4661 8.74288ZM39.5976 8.76224L39.5929 8.76708V8.77273L39.5587 8.76627L39.6365 8.7106L39.6761 8.69366L39.6933 8.70173L39.5976 8.76224ZM39.631 8.77838L39.6388 8.77192L39.7337 8.71947L39.7563 8.72835H39.7609L39.75 8.73561H39.7438H39.736L39.6738 8.78241L39.631 8.77838ZM39.7703 8.77838H39.7329L39.8434 8.70899L39.8986 8.69366L39.7703 8.77838ZM39.9989 8.69366L40.0106 8.68478L40.016 8.67591V8.66703L40.0573 8.65493H40.1008L39.9989 8.69366ZM40.3474 8.60168L40.279 8.63153L40.3 8.6154C40.3186 8.61701 40.3342 8.61378 40.3497 8.60814L40.3474 8.60168ZM40.0106 8.7816L40.1117 8.71463V8.72028V8.72512L40.0339 8.7816H40.0106ZM40.1662 8.76708L40.0806 8.77918L40.1864 8.6985L40.342 8.63153L40.1662 8.76708ZM40.2587 8.74368L40.2113 8.7574L40.3381 8.65493V8.66461L40.3458 8.67026H40.3521L40.2587 8.74368ZM40.3863 8.64606H40.3809L40.4229 8.59684V8.59119V8.58635H40.4524H40.468L40.3863 8.64606ZM40.4143 8.6509H40.4065L40.475 8.59845V8.59119V8.58554H40.5232L40.4143 8.6509ZM40.6694 8.44032L40.559 8.53149L40.4882 8.53552C40.533 8.51266 40.5757 8.48566 40.6158 8.45484H40.6266L40.6313 8.44354C40.643 8.43386 40.6508 8.42095 40.6609 8.41127H40.678L40.6718 8.43467L40.6694 8.44032ZM39.6948 4.16416L39.6878 4.12059L39.6948 4.15609V4.16416ZM39.7034 4.01893V4.05604H39.6995L39.6917 4.06976L39.7041 4.00279L39.7034 4.01893ZM39.3456 2.72801H39.3502H39.3549L39.4109 2.78288L39.5952 3.02492L39.5844 3.03299V3.04671L39.6544 3.30409L39.6458 3.45738L39.6598 3.55904H39.673L39.6769 3.54694L39.6567 3.45173V3.31215L39.6816 3.47997L39.6925 3.64779L39.6878 3.67442L39.6248 3.47432H39.6162V3.484L39.6621 3.63165L39.6917 3.78253L39.6761 3.9794V3.99392C39.64 3.70258 39.5826 3.41451 39.5042 3.13223V3.12739L39.498 3.1169C39.4762 3.04832 39.449 2.98216 39.4202 2.916L39.4669 2.98781H39.4871V2.96441L39.2833 2.6554L39.3456 2.72801ZM38.9216 1.72755L38.8905 1.69286L38.8859 1.67592L38.8952 1.67027L38.903 1.66059L38.9224 1.62267L38.9139 1.64687V1.6743L38.9349 1.69286L38.9216 1.72755ZM39.0298 1.11921L38.9777 1.11356H38.9722H38.9551C38.9551 1.1063 38.9551 1.09904 38.9613 1.09178L39.0298 1.11921ZM39.0025 0.957844C39.0189 0.907821 39.0344 0.857799 39.0484 0.807776L39.0025 0.957844ZM39.1286 0.506831L39.0663 0.727899C39.0845 0.660742 39.099 0.592596 39.1099 0.523773L39.1309 0.45358L39.1286 0.506831ZM39.1371 0.317227L39.12 0.371285C39.1227 0.303984 39.118 0.236578 39.106 0.170387L39.1449 0.186522L39.1371 0.317227ZM39.0897 0.0921253L39.1247 0.111488L39.1464 0.146181V0.164739L39.0982 0.142953C39.0936 0.12601 39.0881 0.109069 39.0827 0.0921253H39.0897ZM38.2504 0.965913L38.2613 0.970754H38.2753H38.2862V0.981243V0.990924L38.2263 0.975594L38.2504 0.965913ZM38.1905 0.985276L38.2745 1.00706C38.2151 1.02255 38.1544 1.03201 38.0933 1.0353C38.071 1.02073 38.0478 1.00752 38.024 0.995765L38.0894 1.00222L38.0995 0.996573V0.984471L38.1306 1.00787H38.1446V0.993345L38.1104 0.967526L38.1547 0.978822L38.1718 0.989311L38.1905 0.985276ZM38.1127 0.904594L38.1679 0.898948L38.1555 0.904594L38.1368 0.925572V0.952198L38.1104 0.945742H38.101V0.955424L38.0497 0.91589L38.1112 0.927185L38.1244 0.917503L38.1127 0.904594ZM38.0256 0.873936L38.0365 0.885231H38.0567L38.0707 0.879582L38.0762 0.890071L38.0839 0.89814L38.0061 0.88281L38.0256 0.873936ZM37.6063 0.84731L37.6328 0.837628L37.9128 0.893299L37.9175 0.909434L37.9323 0.91347L37.9579 0.902173L37.9999 0.910242L38.0894 0.978015L37.7005 0.892492H37.6942C37.6561 0.883617 37.6165 0.879584 37.5799 0.873936L37.6017 0.859412V0.852958L37.6063 0.84731ZM37.5006 0.810197L37.5993 0.830367L37.4974 0.866673L37.5527 0.84489L37.5573 0.8344L37.548 0.828752L37.4554 0.86264C37.4197 0.86264 37.3847 0.853766 37.3497 0.853766L37.5006 0.810197ZM36.8954 0.890879H36.8534L36.8977 0.876357H36.9024V0.870708L37.0269 0.89814L36.8433 0.936868L36.8977 0.91347L36.9047 0.901368L36.8954 0.890879ZM36.7702 0.925572L36.8394 0.914278L36.7336 0.958652H36.7251V0.950583L36.7181 0.945742H36.7064L36.7702 0.925572ZM36.6706 0.971561L36.6481 0.976402H36.6387L36.6512 0.969946L36.6706 0.971561ZM36.6131 0.965913L36.5967 0.976402H36.5501V0.962685L36.6131 0.965913ZM36.5049 0.96188L36.4155 0.972369H36.3883V0.967526L36.5049 0.96188ZM35.9752 1.1176L36.067 1.08532C36.0872 1.08532 36.1075 1.0942 36.1277 1.09823L36.1067 1.10791H36.0997L36.095 1.11356L36.0795 1.12002C36.0437 1.12002 36.0079 1.12002 35.9714 1.12002L35.9752 1.1176ZM33.2451 1.27896H33.2388L33.2108 1.26928L33.2451 1.27896ZM33.1432 1.27008L33.2077 1.29187H33.2031C33.1455 1.2817 33.0868 1.28034 33.0288 1.28783L33.1432 1.27008ZM32.8445 1.29752L32.7395 1.33624L32.734 1.34835L32.7442 1.35399L32.8702 1.30639L32.9923 1.28864L32.9767 1.29752L32.7488 1.35399H32.7434V1.35964H32.7387L32.6765 1.3903L32.6119 1.39514L32.7216 1.33221L32.8445 1.29752ZM32.6158 1.24911L32.5606 1.21522H32.8321L32.6765 1.26363L32.6158 1.24911ZM32.6609 1.28622H32.6671L32.6368 1.29832L32.5948 1.30639L32.6609 1.28622ZM32.6166 1.31607V1.32253L32.5536 1.34593L32.4182 1.35077L32.6166 1.31607ZM32.5575 1.40644L32.4431 1.38143H32.4602H32.5513L32.6399 1.36206H32.6485L32.6065 1.38949V1.40321H32.6174L32.5575 1.40644ZM32.7659 1.40644L32.7776 1.3903L32.7706 1.37255L32.9262 1.33382L32.8375 1.38546H32.8321L32.7908 1.40967V1.42257H32.8025C32.7871 1.44287 32.7738 1.46477 32.7628 1.48793L32.6407 1.55005V1.54441H32.6353L32.5575 1.59281L32.4851 1.62912C32.4176 1.64521 32.3493 1.6576 32.2806 1.66623H32.2448L32.7659 1.40644ZM9.85662 1.00141L9.49726 0.920731L9.55404 0.927185H9.55793L9.65982 0.938481L9.85662 1.00141ZM9.3308 0.81665L9.58826 0.904594L9.33002 0.88039L8.86955 0.776309L9.3308 0.81665ZM7.5068 0.482627V0.487468L7.45702 0.479399L7.39946 0.446319L7.5068 0.482627ZM7.27345 0.422115L7.37846 0.467297C7.25012 0.444706 7.12255 0.422115 6.99421 0.404365L7.27345 0.422115ZM6.70719 0.362409L6.66986 0.374513H6.65819L6.70719 0.362409ZM2.96896 2.18744L3.38432 1.68479L3.85102 1.28138C3.44586 1.71332 3.10505 2.20552 2.83984 2.74173C2.74884 2.91681 2.68428 3.09996 2.60649 3.27907L2.96896 2.18744ZM1.4872 13.6322C1.47554 13.7936 1.46776 13.9598 1.45453 14.1228H1.44287L1.42109 14.1526L1.40086 14.222H1.38686L1.37442 14.2285L1.4872 13.6322ZM1.27952 15.2894V15.3475L1.23752 15.5145H1.22119L1.21185 15.5282L1.18074 15.7356L1.17452 15.7598L1.16596 15.7267L1.13796 15.7146L1.27952 15.2894ZM1.12396 14.9457L1.11851 14.9619L1.12396 14.9457ZM1.09596 16.156L1.11385 16.1624L1.10762 16.2036L1.08429 16.2092L1.06795 16.2326L1.04851 16.2947L1.08351 16.1422L1.09596 16.156ZM1.04929 15.1152L1.07184 15.0982L0.970726 15.4016L0.938058 15.4363L1.00573 15.2112L1.04929 15.1152ZM0.620704 15.7751L0.962947 15.1958L0.925613 15.3193L0.759157 15.6275L0.620704 15.7751ZM0.798048 15.667L0.690708 15.8284L0.724932 15.7477L0.798048 15.667ZM0.779381 15.7905L0.722599 15.9906L0.708599 16.0422H0.699265H0.690708L0.707044 15.9994L0.695377 15.976L0.669707 15.9889L0.57637 16.2245L0.476029 16.3351L0.586479 16.0745L0.779381 15.7905Z" fill="#2072B2"/>
</svg>
